<?xml version="1.0" standalone="no"?>
<!DOCTYPE svg PUBLIC "-//W3C//DTD SVG 20010904//EN"
 "http://www.w3.org/TR/2001/REC-SVG-20010904/DTD/svg10.dtd">
<svg version="1.0" xmlns="http://www.w3.org/2000/svg"
 width="128.000000pt" height="128.000000pt" viewBox="0 0 128.000000 128.000000"
 preserveAspectRatio="xMidYMid meet">

<g transform="translate(0.000000,128.000000) scale(0.100000,-0.100000)"
fill="#000000" stroke="none">
<path d="M0 770 l0 -505 103 103 c56 56 105 102 108 102 3 0 41 -79 85 -175
43 -96 84 -175 89 -175 19 -1 154 65 155 76 0 6 -35 87 -79 180 l-78 169 169
5 168 5 -360 360 -360 360 0 -505z m511 -200 l-158 -5 59 -130 c33 -72 70
-154 84 -183 l23 -53 -62 -28 c-34 -16 -65 -26 -68 -22 -4 3 -42 83 -84 176
-42 94 -79 172 -81 174 -3 3 -50 -40 -104 -94 l-100 -100 0 460 0 460 325
-325 325 -325 -159 -5z"/>
</g>
</svg>
